# xmcd
# 
# Track frame offsets:
#     150
#     20627
#     40122
#     57480
#     76285
#     91767
#     112405
#     127525
#     142497
#     161877
# 
# Disc length: 2404
# 
# Revision: 6
# Processed by: cddbd v1.5.2PL0 Copyright (c) Steve Scherf et al.
# Submitted via: fre:ac v1.0.31
# 
DISCID=8909620a
DTITLE=Various Artist - Rainbow
DYEAR=1987
DGENRE=Folk/Country
TTITLE0=Dolly Parton - The River Unbroken
TTITLE1=Dolly Parton with Smokey Robinson - I Know You by Heart
TTITLE2=Dolly Parton - Dump the Dude
TTITLE3=Dolly Parton - Red Hot Screaming Love
TTITLE4=Dolly Parton - Make Love Work
TTITLE5=Dolly Parton - Everyday Hero
TTITLE6=Dolly Parton - Two Lovers
TTITLE7=Dolly Parton - Could I Have Your Autograph
TTITLE8=Dolly Parton - Savin' It for You
TTITLE9=Dolly Parton - More Than I Can Say
EXTD=YEAR: 1987
EXTT0=
EXTT1=
EXTT2=
EXTT3=
EXTT4=
EXTT5=
EXTT6=
EXTT7=
EXTT8=
EXTT9=
PLAYORDER=
